<?xml version="1.0" encoding="utf-8"?>
<!-- Generator: Adobe Illustrator 16.0.0, SVG Export Plug-In . SVG Version: 6.00 Build 0)  -->
<!DOCTYPE svg PUBLIC "-//W3C//DTD SVG 1.1//EN" "http://www.w3.org/Graphics/SVG/1.1/DTD/svg11.dtd">
<svg version="1.1" xmlns="http://www.w3.org/2000/svg" xmlns:xlink="http://www.w3.org/1999/xlink" x="0px" y="0px" width="200px"
	 height="34.449px" viewBox="0 0 200 34.449" enable-background="new 0 0 200 34.449" xml:space="preserve">
<g id="Layer_2">
</g>
<g id="Layer_1">
	<g>
		<g>
			<path fill="#ED2227" d="M8.06,31.037v-0.618V13.831H8.057V3.938c0,0,0.008-0.336,0-0.599c-0.01-0.264-0.147-0.49-0.347-0.645
				C7.51,2.54,6.676,2.049,6.348,1.869c-0.325-0.184-1.551-0.9-1.75-1.009c-0.2-0.108-0.328-0.172-0.536-0.172
				S3.518,0.853,3.518,0.853L1.511,2.005c0,0-1.144,0.717-1.297,0.908C0.06,3.103,0.069,3.393,0.069,3.393v0.618v16.464H0.07v10.018
				c0,0-0.008,0.335,0,0.6c0.012,0.261,0.146,0.489,0.346,0.644c0.201,0.154,1.034,0.646,1.363,0.825
				c0.325,0.183,1.552,0.899,1.751,1.008c0.199,0.109,0.327,0.174,0.535,0.174c0.209,0,0.544-0.164,0.544-0.164l2.006-1.152
				c0,0,1.145-0.716,1.299-0.908C8.069,31.327,8.06,31.037,8.06,31.037z"/>
			<g>
				<path fill="#ED2227" d="M15.658,33.742c-0.075,0-0.063-0.012-0.11-0.042c-0.045-0.031-0.25-0.162-0.25-0.162l-0.885-0.522
					c0,0-1.756-1.022-2.083-1.28c-0.326-0.258-0.283-0.464-0.283-0.464l0.001-0.326V4.845c0,0-0.003-1.563,0-1.674
					c0.002-0.109,0.093-0.313,0.241-0.437c0.151-0.123,0.9-0.585,0.9-0.585s2.096-1.226,2.341-1.348
					c0.246-0.123,0.558-0.096,0.558-0.096h1.062h4.891c2.421,0,5.438,0.207,7.615,0.798c2.177,0.592,4.076,1.548,5.698,2.869
					c1.622,1.322,2.531,2.823,3.484,4.938c0.952,2.116,1.088,4.988,1.088,8.006c0,2.675-0.093,5.351-1.015,7.389
					c-0.926,2.036-1.502,3.552-3.066,4.938c-1.565,1.383-3.371,2.433-5.422,3.148c-2.048,0.716-5.238,0.95-7.485,0.95h-6.699
					C16.238,33.742,15.731,33.742,15.658,33.742z M19.964,26.938h2.206c1.536,0,1.973,0.118,3.241-0.091
					c1.348-0.223,2.878-0.696,3.847-1.49c0.966-0.792,1.422-1.213,1.977-2.505c0.252-0.583,0.489-1.399,0.577-2.363
					c0.106-1.168,0.035-2.522,0.035-3.544c0-1.619,0.142-3.586-0.412-4.784c-0.556-1.197-1.037-2.254-2.031-2.96
					C28.45,8.53,27.596,8.019,26.3,7.75c-1.274-0.265-2.268-0.325-3.662-0.325h-2.674V26.938z"/>
			</g>
			<g>
				<path fill="#ED2227" d="M71.536,30.618v0.531v0.152c0,0,0.049,0.08-0.154,0.302c-0.204,0.22-0.48,0.404-0.97,0.688
					c-0.489,0.286-2.109,1.254-2.109,1.254s-0.317,0.185-0.431,0.204c-0.113,0.019-0.149,0.036-0.149,0.036H67.4
					c0,0-0.113-0.004-0.187-0.041c-0.071-0.035-0.951-0.472-0.951-0.472l-2.04-1.17c0,0-0.296-0.164-0.479-0.378
					c-0.182-0.212-0.464-0.573-0.464-0.573L51.774,16.137h-0.081v14.686v0.247v0.207c0,0,0.005,0.25-0.059,0.317
					c-0.064,0.068-0.595,0.432-0.595,0.432l-2.857,1.685c0,0-0.113,0.081-0.236,0.076c-0.124-0.004-0.409,0-0.409,0
					s-0.145-0.009-0.298-0.1c-0.283-0.164-0.567-0.334-0.852-0.498c-0.518-0.299-1.032-0.606-1.549-0.908
					c-0.109-0.065-0.223-0.122-0.333-0.185c-0.268-0.158-0.468-0.308-0.642-0.569c-0.072-0.108-0.101-0.187-0.101-0.264
					l-0.025-0.494V3.647c0,0-0.02-0.401,0.062-0.6c0.082-0.197,0.681-0.626,0.681-0.626l2.878-1.66c0,0,0.09-0.063,0.198-0.068
					c0.108-0.007,0.285,0,0.285,0l0.081,0.006c0,0,0.028-0.027,0.32,0.129c0.292,0.158,2.497,1.457,2.497,1.457
					s0.36,0.164,0.471,0.266c0.108,0.103,0.68,0.711,0.68,0.711L63.45,18.26h0.084l0.011-14.303c0,0,0.013-0.612,0.013-0.762
					c0-0.15,0.06-0.255,0.193-0.393c0.136-0.136,0.288-0.263,0.288-0.263s2.645-1.471,3.039-1.702
					c0.396-0.231,0.35-0.166,0.35-0.166s0.011,0,0.2,0c0.191,0.002,0.531,0.217,0.531,0.217l1.375,0.757
					c0,0,1.705,1.008,1.861,1.185c0.158,0.177,0.139,0.396,0.139,0.396v0.513l0.002,26.853"/>
			</g>
		</g>
		<g>
			<path fill="#070707" d="M91.933,7.2h-8.85V2.551h22.839V7.2h-8.85v24.227h-5.14V7.2z"/>
			<path fill="#070707" d="M110.101,2.551h5.138v28.876h-5.138V2.551z"/>
			<path fill="#070707" d="M120.492,2.551h7.831l7.709,20.229l7.79-20.229h7.748v28.876h-4.895V7.445h-0.081l-8.768,23.981h-3.591
				l-8.769-23.981h-0.081v23.981h-4.895V2.551z"/>
			<path fill="#070707" d="M156.945,2.551h19.129V7.2h-13.989v7.096h13.255v4.649h-13.255v7.831h14.724v4.65h-19.863V2.551z"/>
			<path fill="#070707" d="M196.017,8.75c-0.545-0.788-1.271-1.365-2.182-1.733c-0.911-0.366-1.869-0.55-2.876-0.55
				c-0.598,0-1.177,0.066-1.732,0.202c-0.558,0.137-1.06,0.355-1.51,0.653c-0.449,0.3-0.81,0.688-1.08,1.162
				c-0.272,0.477-0.408,1.04-0.408,1.692c0,0.979,0.34,1.728,1.021,2.244c0.679,0.516,1.521,0.966,2.527,1.347
				c1.006,0.379,2.106,0.747,3.304,1.1c1.196,0.354,2.298,0.845,3.304,1.469c1.005,0.626,1.849,1.455,2.529,2.488
				c0.679,1.032,1.02,2.406,1.02,4.119c0,1.549-0.285,2.902-0.857,4.058c-0.57,1.155-1.339,2.114-2.305,2.875
				c-0.964,0.762-2.086,1.332-3.364,1.713c-1.277,0.381-2.624,0.57-4.038,0.57c-1.794,0-3.521-0.298-5.18-0.896
				c-1.657-0.598-3.085-1.604-4.281-3.018l3.874-3.753c0.624,0.953,1.448,1.692,2.469,2.224c1.018,0.529,2.099,0.795,3.241,0.795
				c0.598,0,1.196-0.081,1.794-0.245c0.598-0.163,1.143-0.406,1.632-0.733c0.489-0.326,0.883-0.741,1.183-1.244
				s0.448-1.081,0.448-1.734c0-1.06-0.34-1.876-1.019-2.446c-0.681-0.57-1.523-1.054-2.529-1.447
				c-1.007-0.395-2.106-0.77-3.304-1.122c-1.196-0.354-2.298-0.836-3.304-1.448c-1.005-0.612-1.849-1.428-2.527-2.446
				c-0.681-1.02-1.02-2.386-1.02-4.099c0-1.496,0.306-2.787,0.916-3.876c0.613-1.085,1.415-1.99,2.406-2.711
				c0.993-0.72,2.128-1.257,3.406-1.611c1.277-0.354,2.583-0.53,3.915-0.53c1.522,0,2.998,0.231,4.426,0.693
				c1.428,0.464,2.712,1.224,3.854,2.283L196.017,8.75z"/>
		</g>
	</g>
</g>
</svg>
